<svg width="72" height="80" viewBox="0 0 72 80" fill="none" xmlns="http://www.w3.org/2000/svg">
<path d="M41.3561 5.37307C41.3561 8.34054 38.9581 10.7461 36 10.7461C33.0419 10.7461 30.6438 8.34054 30.6438 5.37307C30.6438 2.40561 33.0419 0 36 0C38.9581 0 41.3561 2.40561 41.3561 5.37307Z" fill="url(#paint0_linear)"/>
<path d="M41.3561 39.9995C41.3561 42.967 38.9581 45.3726 36 45.3726C33.0419 45.3726 30.6438 42.967 30.6438 39.9995C30.6438 37.0321 33.0419 34.6265 36 34.6265C38.9581 34.6265 41.3561 37.0321 41.3561 39.9995Z" fill="url(#paint1_linear)"/>
<path d="M34.8097 48.9547C34.8097 48.2952 35.3426 47.7606 36 47.7606C36.6573 47.7606 37.1902 48.2952 37.1902 48.9547V65.6709C37.1902 66.3303 36.6573 66.8649 36 66.8649C35.3426 66.8649 34.8097 66.3303 34.8097 65.6709V48.9547Z" fill="url(#paint2_linear)"/>
<path d="M41.3561 74.626C41.3561 77.5935 38.9581 79.9991 36 79.9991C33.0419 79.9991 30.6438 77.5935 30.6438 74.626C30.6438 71.6585 33.0419 69.2529 36 69.2529C38.9581 69.2529 41.3561 71.6585 41.3561 74.626Z" fill="url(#paint3_linear)"/>
<path d="M11.5998 22.6863C11.5998 25.6538 9.20177 28.0594 6.24365 28.0594C3.28554 28.0594 0.887512 25.6538 0.887512 22.6863C0.887512 19.7188 3.28554 17.3132 6.24365 17.3132C9.20177 17.3132 11.5998 19.7188 11.5998 22.6863Z" fill="url(#paint4_linear)"/>
<path d="M5.0534 31.6414C5.0534 30.982 5.58629 30.4474 6.24365 30.4474C6.90101 30.4474 7.4339 30.982 7.4339 31.6414V48.3577C7.4339 49.0171 6.90101 49.5517 6.24365 49.5517C5.58629 49.5517 5.0534 49.0171 5.0534 48.3577V31.6414Z" fill="url(#paint5_linear)"/>
<path d="M11.5998 57.3128C11.5998 60.2802 9.20177 62.6858 6.24365 62.6858C3.28554 62.6858 0.887512 60.2802 0.887512 57.3128C0.887512 54.3453 3.28554 51.9397 6.24365 51.9397C9.20177 51.9397 11.5998 54.3453 11.5998 57.3128Z" fill="url(#paint6_linear)"/>
<path d="M71.1124 22.6863C71.1124 25.6538 68.7144 28.0594 65.7563 28.0594C62.7982 28.0594 60.4002 25.6538 60.4002 22.6863C60.4002 19.7188 62.7982 17.3132 65.7563 17.3132C68.7144 17.3132 71.1124 19.7188 71.1124 22.6863Z" fill="url(#paint7_linear)"/>
<path d="M64.5661 31.6414C64.5661 30.982 65.099 30.4474 65.7563 30.4474C66.4137 30.4474 66.9466 30.982 66.9466 31.6414V48.3577C66.9466 49.0171 66.4137 49.5517 65.7563 49.5517C65.099 49.5517 64.5661 49.0171 64.5661 48.3577V31.6414Z" fill="url(#paint8_linear)"/>
<path d="M71.1124 57.3128C71.1124 60.2802 68.7144 62.6858 65.7563 62.6858C62.7982 62.6858 60.4002 60.2802 60.4002 57.3128C60.4002 54.3453 62.7982 51.9397 65.7563 51.9397C68.7144 51.9397 71.1124 54.3453 71.1124 57.3128Z" fill="url(#paint9_linear)"/>
<path d="M68.571 27.3395C66.0092 28.8232 62.7335 27.9427 61.2544 25.3728C59.7754 22.8029 60.6531 19.5168 63.2149 18.0331C65.7767 16.5493 69.0525 17.4298 70.5315 19.9997C72.0106 22.5696 71.1328 25.8558 68.571 27.3395Z" fill="url(#paint10_linear)"/>
<path d="M41.4927 39.9995C41.4927 42.967 39.0947 45.3726 36.1366 45.3726C33.1785 45.3726 30.7805 42.967 30.7805 39.9995C30.7805 37.032 33.1785 34.6264 36.1366 34.6264C39.0947 34.6264 41.4927 37.032 41.4927 39.9995Z" fill="url(#paint11_linear)"/>
<path d="M38.6781 44.6527C36.1163 46.1365 32.8405 45.256 31.3615 42.6861C29.8824 40.1162 30.7602 36.83 33.322 35.3463C35.8838 33.8626 39.1595 34.7431 40.6386 37.313C42.1176 39.8829 41.2399 43.169 38.6781 44.6527Z" fill="url(#paint12_linear)"/>
<path d="M57.5669 26.1298C58.1362 25.8001 58.8641 25.9958 59.1928 26.5668C59.5215 27.1379 59.3264 27.8682 58.7571 28.1979L44.3261 36.556C43.7568 36.8857 43.0288 36.6901 42.7002 36.119C42.3715 35.5479 42.5665 34.8176 43.1358 34.4879L57.5669 26.1298Z" fill="url(#paint13_linear)"/>
<path d="M8.78521 61.966C6.22341 63.4497 2.94764 62.5692 1.46859 59.9993C-0.0104714 57.4294 0.867267 54.1433 3.42907 52.6595C5.99087 51.1758 9.26663 52.0563 10.7457 54.6262C12.2247 57.1961 11.347 60.4822 8.78521 61.966Z" fill="url(#paint14_linear)"/>
<path d="M68.5708 61.966C66.009 63.4497 62.7332 62.5692 61.2542 59.9993C59.7751 57.4294 60.6528 54.1433 63.2146 52.6596C65.7765 51.1758 69.0522 52.0564 70.5313 54.6263C72.0103 57.1962 71.1326 60.4823 68.5708 61.966Z" fill="url(#paint15_linear)"/>
<path d="M38.6779 79.2792C36.1161 80.763 32.8403 79.8825 31.3613 77.3126C29.8822 74.7427 30.76 71.4565 33.3218 69.9728C35.8836 68.4891 39.1593 69.3696 40.6384 71.9395C42.1174 74.5094 41.2397 77.7955 38.6779 79.2792Z" fill="url(#paint16_linear)"/>
<path d="M57.5667 60.7563C58.136 60.4266 58.8639 60.6223 59.1926 61.1933C59.5213 61.7644 59.3262 62.4947 58.7569 62.8244L44.3259 71.1825C43.7566 71.5122 43.0286 71.3166 42.7 70.7455C42.3713 70.1744 42.5663 69.4441 43.1356 69.1144L57.5667 60.7563Z" fill="url(#paint17_linear)"/>
<path d="M8.7851 18.0331C11.3469 19.5168 12.2246 22.8029 10.7456 25.3728C9.26653 27.9427 5.99077 28.8232 3.42896 27.3395C0.867162 25.8558 -0.0105761 22.5697 1.46848 19.9998C2.94754 17.4299 6.2233 16.5494 8.7851 18.0331Z" fill="url(#paint18_linear)"/>
<path d="M38.678 35.3463C41.2398 36.8301 42.1175 40.1162 40.6385 42.6861C39.1594 45.256 35.8837 46.1365 33.3219 44.6528C30.7601 43.169 29.8823 39.8829 31.3614 37.313C32.8404 34.7431 36.1162 33.8626 38.678 35.3463Z" fill="url(#paint19_linear)"/>
<path d="M41.3561 39.9995C41.3561 42.967 38.9581 45.3726 36 45.3726C33.0419 45.3726 30.6438 42.967 30.6438 39.9995C30.6438 37.0321 33.0419 34.6265 36 34.6265C38.9581 34.6265 41.3561 37.0321 41.3561 39.9995Z" fill="url(#paint20_linear)"/>
<path d="M68.5708 52.6595C71.1326 54.1433 72.0104 57.4294 70.5313 59.9993C69.0523 62.5692 65.7765 63.4497 63.2147 61.966C60.6529 60.4822 59.7752 57.1961 61.2542 54.6262C62.7333 52.0563 66.009 51.1758 68.5708 52.6595Z" fill="url(#paint21_linear)"/>
<path d="M27.5669 9.12981C28.1362 8.80009 28.8641 8.99576 29.1928 9.56685C29.5215 10.1379 29.3264 10.8682 28.7571 11.1979L14.3261 19.556C13.7568 19.8857 13.0288 19.6901 12.7002 19.119C12.3715 18.5479 12.5665 17.8176 13.1358 17.4879L27.5669 9.12981Z" fill="url(#paint22_linear)"/>
<defs>
<linearGradient id="paint0_linear" x1="0.749999" y1="15.8623" x2="71.5833" y2="16.3424" gradientUnits="userSpaceOnUse">
<stop stop-color="#A468FF"/>
<stop offset="0.446494" stop-color="#895AFF"/>
<stop offset="1" stop-color="#4839FF"/>
</linearGradient>
<linearGradient id="paint1_linear" x1="0.749999" y1="15.8623" x2="71.5833" y2="16.3424" gradientUnits="userSpaceOnUse">
<stop stop-color="#A468FF"/>
<stop offset="0.446494" stop-color="#895AFF"/>
<stop offset="1" stop-color="#4839FF"/>
</linearGradient>
<linearGradient id="paint2_linear" x1="0.749999" y1="15.8623" x2="71.5833" y2="16.3424" gradientUnits="userSpaceOnUse">
<stop stop-color="#A468FF"/>
<stop offset="0.446494" stop-color="#895AFF"/>
<stop offset="1" stop-color="#4839FF"/>
</linearGradient>
<linearGradient id="paint3_linear" x1="0.749999" y1="15.8623" x2="71.5833" y2="16.3424" gradientUnits="userSpaceOnUse">
<stop stop-color="#A468FF"/>
<stop offset="0.446494" stop-color="#895AFF"/>
<stop offset="1" stop-color="#4839FF"/>
</linearGradient>
<linearGradient id="paint4_linear" x1="0.749999" y1="15.8623" x2="71.5833" y2="16.3424" gradientUnits="userSpaceOnUse">
<stop stop-color="#A468FF"/>
<stop offset="0.446494" stop-color="#895AFF"/>
<stop offset="1" stop-color="#4839FF"/>
</linearGradient>
<linearGradient id="paint5_linear" x1="0.749999" y1="15.8623" x2="71.5833" y2="16.3424" gradientUnits="userSpaceOnUse">
<stop stop-color="#A468FF"/>
<stop offset="0.446494" stop-color="#895AFF"/>
<stop offset="1" stop-color="#4839FF"/>
</linearGradient>
<linearGradient id="paint6_linear" x1="0.749999" y1="15.8623" x2="71.5833" y2="16.3424" gradientUnits="userSpaceOnUse">
<stop stop-color="#A468FF"/>
<stop offset="0.446494" stop-color="#895AFF"/>
<stop offset="1" stop-color="#4839FF"/>
</linearGradient>
<linearGradient id="paint7_linear" x1="0.749999" y1="15.8623" x2="71.5833" y2="16.3424" gradientUnits="userSpaceOnUse">
<stop stop-color="#A468FF"/>
<stop offset="0.446494" stop-color="#895AFF"/>
<stop offset="1" stop-color="#4839FF"/>
</linearGradient>
<linearGradient id="paint8_linear" x1="0.749999" y1="15.8623" x2="71.5833" y2="16.3424" gradientUnits="userSpaceOnUse">
<stop stop-color="#A468FF"/>
<stop offset="0.446494" stop-color="#895AFF"/>
<stop offset="1" stop-color="#4839FF"/>
</linearGradient>
<linearGradient id="paint9_linear" x1="0.749999" y1="15.8623" x2="71.5833" y2="16.3424" gradientUnits="userSpaceOnUse">
<stop stop-color="#A468FF"/>
<stop offset="0.446494" stop-color="#895AFF"/>
<stop offset="1" stop-color="#4839FF"/>
</linearGradient>
<linearGradient id="paint10_linear" x1="0.749999" y1="15.8623" x2="71.5833" y2="16.3424" gradientUnits="userSpaceOnUse">
<stop stop-color="#A468FF"/>
<stop offset="0.446494" stop-color="#895AFF"/>
<stop offset="1" stop-color="#4839FF"/>
</linearGradient>
<linearGradient id="paint11_linear" x1="0.749999" y1="15.8623" x2="71.5833" y2="16.3424" gradientUnits="userSpaceOnUse">
<stop stop-color="#A468FF"/>
<stop offset="0.446494" stop-color="#895AFF"/>
<stop offset="1" stop-color="#4839FF"/>
</linearGradient>
<linearGradient id="paint12_linear" x1="0.749999" y1="15.8623" x2="71.5833" y2="16.3424" gradientUnits="userSpaceOnUse">
<stop stop-color="#A468FF"/>
<stop offset="0.446494" stop-color="#895AFF"/>
<stop offset="1" stop-color="#4839FF"/>
</linearGradient>
<linearGradient id="paint13_linear" x1="0.749999" y1="15.8623" x2="71.5833" y2="16.3424" gradientUnits="userSpaceOnUse">
<stop stop-color="#A468FF"/>
<stop offset="0.446494" stop-color="#895AFF"/>
<stop offset="1" stop-color="#4839FF"/>
</linearGradient>
<linearGradient id="paint14_linear" x1="0.749999" y1="15.8623" x2="71.5833" y2="16.3424" gradientUnits="userSpaceOnUse">
<stop stop-color="#A468FF"/>
<stop offset="0.446494" stop-color="#895AFF"/>
<stop offset="1" stop-color="#4839FF"/>
</linearGradient>
<linearGradient id="paint15_linear" x1="0.749999" y1="15.8623" x2="71.5833" y2="16.3424" gradientUnits="userSpaceOnUse">
<stop stop-color="#A468FF"/>
<stop offset="0.446494" stop-color="#895AFF"/>
<stop offset="1" stop-color="#4839FF"/>
</linearGradient>
<linearGradient id="paint16_linear" x1="0.749999" y1="15.8623" x2="71.5833" y2="16.3424" gradientUnits="userSpaceOnUse">
<stop stop-color="#A468FF"/>
<stop offset="0.446494" stop-color="#895AFF"/>
<stop offset="1" stop-color="#4839FF"/>
</linearGradient>
<linearGradient id="paint17_linear" x1="0.749999" y1="15.8623" x2="71.5833" y2="16.3424" gradientUnits="userSpaceOnUse">
<stop stop-color="#A468FF"/>
<stop offset="0.446494" stop-color="#895AFF"/>
<stop offset="1" stop-color="#4839FF"/>
</linearGradient>
<linearGradient id="paint18_linear" x1="0.749999" y1="15.8623" x2="71.5833" y2="16.3424" gradientUnits="userSpaceOnUse">
<stop stop-color="#A468FF"/>
<stop offset="0.446494" stop-color="#895AFF"/>
<stop offset="1" stop-color="#4839FF"/>
</linearGradient>
<linearGradient id="paint19_linear" x1="0.749999" y1="15.8623" x2="71.5833" y2="16.3424" gradientUnits="userSpaceOnUse">
<stop stop-color="#A468FF"/>
<stop offset="0.446494" stop-color="#895AFF"/>
<stop offset="1" stop-color="#4839FF"/>
</linearGradient>
<linearGradient id="paint20_linear" x1="0.749999" y1="15.8623" x2="71.5833" y2="16.3424" gradientUnits="userSpaceOnUse">
<stop stop-color="#A468FF"/>
<stop offset="0.446494" stop-color="#895AFF"/>
<stop offset="1" stop-color="#4839FF"/>
</linearGradient>
<linearGradient id="paint21_linear" x1="0.749999" y1="15.8623" x2="71.5833" y2="16.3424" gradientUnits="userSpaceOnUse">
<stop stop-color="#A468FF"/>
<stop offset="0.446494" stop-color="#895AFF"/>
<stop offset="1" stop-color="#4839FF"/>
</linearGradient>
<linearGradient id="paint22_linear" x1="0.749999" y1="15.8623" x2="71.5833" y2="16.3424" gradientUnits="userSpaceOnUse">
<stop stop-color="#A468FF"/>
<stop offset="0.446494" stop-color="#895AFF"/>
<stop offset="1" stop-color="#4839FF"/>
</linearGradient>
</defs>
</svg>
