<svg width="48" height="48" viewBox="0 0 48 48" fill="none" xmlns="http://www.w3.org/2000/svg">
<path d="M9.91406 45.4453H38.5313C43.1016 45.4453 45.4453 43.1016 45.4453 38.6016V9.86719C45.4453 5.34375 43.1016 3 38.5313 3H9.91406C5.34375 3 3 5.32031 3 9.86719V38.6016C3 43.125 5.34375 45.4453 9.91406 45.4453ZM9.96094 42.5391C7.33594 42.5391 5.90625 41.1563 5.90625 38.4375V10.0078C5.90625 7.3125 7.33594 5.90625 9.96094 5.90625H38.4609C41.0625 5.90625 42.5391 7.3125 42.5391 10.0078V38.4375C42.5391 41.1563 41.0625 42.5391 38.4609 42.5391H9.96094ZM9.35156 15.2813C9.35156 16.3594 10.0547 17.0625 11.1328 17.0625H15.2578C16.3359 17.0625 17.0625 16.3594 17.0625 15.2813V11.1328C17.0625 10.0781 16.3359 9.35156 15.2578 9.35156H11.1328C10.0547 9.35156 9.35156 10.0781 9.35156 11.1328V15.2813ZM20.3672 15.2813C20.3672 16.3594 21.0938 17.0625 22.1719 17.0625H26.2969C27.375 17.0625 28.1016 16.3594 28.1016 15.2813V11.1328C28.1016 10.0781 27.375 9.35156 26.2969 9.35156H22.1719C21.0938 9.35156 20.3672 10.0781 20.3672 11.1328V15.2813ZM31.3828 15.2813C31.3828 16.3594 32.0859 17.0625 33.1875 17.0625H37.2891C38.3906 17.0625 39.0938 16.3594 39.0938 15.2813V11.1328C39.0938 10.0781 38.3906 9.35156 37.2891 9.35156H33.1875C32.0859 9.35156 31.3828 10.0781 31.3828 11.1328V15.2813ZM9.35156 26.2969C9.35156 27.375 10.0547 28.0781 11.1328 28.0781H15.2578C16.3359 28.0781 17.0625 27.375 17.0625 26.2969V22.1484C17.0625 21.0938 16.3359 20.3672 15.2578 20.3672H11.1328C10.0547 20.3672 9.35156 21.0938 9.35156 22.1484V26.2969ZM20.3672 26.2969C20.3672 27.375 21.0938 28.0781 22.1719 28.0781H26.2969C27.375 28.0781 28.1016 27.375 28.1016 26.2969V22.1484C28.1016 21.0938 27.375 20.3672 26.2969 20.3672H22.1719C21.0938 20.3672 20.3672 21.0938 20.3672 22.1484V26.2969ZM31.3828 26.2969C31.3828 27.375 32.0859 28.0781 33.1875 28.0781H37.2891C38.3906 28.0781 39.0938 27.375 39.0938 26.2969V22.1484C39.0938 21.0938 38.3906 20.3672 37.2891 20.3672H33.1875C32.0859 20.3672 31.3828 21.0938 31.3828 22.1484V26.2969ZM9.35156 37.3125C9.35156 38.3672 10.0547 39.0938 11.1328 39.0938H15.2578C16.3359 39.0938 17.0625 38.3672 17.0625 37.3125V33.1641C17.0625 32.0859 16.3359 31.3828 15.2578 31.3828H11.1328C10.0547 31.3828 9.35156 32.0859 9.35156 33.1641V37.3125ZM20.3672 37.3125C20.3672 38.3672 21.0938 39.0938 22.1719 39.0938H26.2969C27.375 39.0938 28.1016 38.3672 28.1016 37.3125V33.1641C28.1016 32.0859 27.375 31.3828 26.2969 31.3828H22.1719C21.0938 31.3828 20.3672 32.0859 20.3672 33.1641V37.3125ZM31.3828 37.3125C31.3828 38.3672 32.0859 39.0938 33.1875 39.0938H37.2891C38.3906 39.0938 39.0938 38.3672 39.0938 37.3125V33.1641C39.0938 32.0859 38.3906 31.3828 37.2891 31.3828H33.1875C32.0859 31.3828 31.3828 32.0859 31.3828 33.1641V37.3125Z" fill="url(#paint0_linear)"/>
<defs>
<linearGradient id="paint0_linear" x1="3" y1="11.416" x2="45.6454" y2="11.744" gradientUnits="userSpaceOnUse">
<stop stop-color="#A468FF"/>
<stop offset="0.446494" stop-color="#895AFF"/>
<stop offset="1" stop-color="#4839FF"/>
</linearGradient>
</defs>
</svg>
