<svg width="48" height="48" viewBox="0 0 48 48" fill="none" xmlns="http://www.w3.org/2000/svg">
<path d="M3.92265 29.7962L8.452 34.3256C9.484 35.3576 10.8313 35.3576 11.7057 34.4832C12.1787 34.0102 12.4653 33.3509 12.5227 32.4049C12.5943 31.1006 12.9527 29.9396 13.8413 29.0509C15.5327 27.3596 17.9837 27.2592 19.8614 29.1369C21.739 31.0146 21.6387 33.4656 19.9474 35.1569C19.0587 36.0456 17.912 36.4183 16.6077 36.4899C15.6617 36.5473 14.988 36.8196 14.515 37.2926C13.6407 38.1669 13.6407 39.5143 14.687 40.5606L19.2164 45.0899C21.739 47.6126 24.4624 47.6413 26.9564 45.1473L31.9587 40.1449C32.2167 39.8869 32.5321 39.9443 32.6181 40.4029C32.8617 41.8506 33.3061 43.3269 34.5817 44.6026C37.1187 47.1396 41.2754 47.3116 44.1994 44.3876C47.1378 41.4493 46.9514 37.3069 44.4144 34.7699C43.1388 33.4942 41.6624 33.0499 40.2291 32.7919C39.7561 32.7202 39.7131 32.3906 39.9567 32.1469L45.1598 26.9439C47.6394 24.4642 47.6108 21.7409 45.0881 19.2182L40.5588 14.6889C39.5124 13.6425 38.1651 13.6425 37.2907 14.5169C36.8321 14.9755 36.5454 15.6635 36.5024 16.5952C36.4164 17.9139 36.0581 19.0462 35.1694 19.9349C33.5067 21.5975 30.9841 21.7122 29.1351 19.8632C27.3004 18.0285 27.4007 15.4915 29.0634 13.8289C29.9521 12.9402 31.0987 12.5962 32.4174 12.5102C33.3491 12.4672 34.0227 12.1662 34.4814 11.7075C35.3557 10.8332 35.3557 9.48585 34.3237 8.45385L29.7944 3.9245C27.2574 1.38749 24.534 1.35883 22.0544 3.8385L16.8514 9.04151C16.6077 9.28518 16.2924 9.25651 16.2064 8.76918C15.9627 7.35018 15.504 5.85951 14.2283 4.58384C11.6913 2.04683 7.54899 1.8605 4.61065 4.79884C1.68665 7.72284 1.85865 11.8795 4.39565 14.4165C5.67132 15.6922 7.16199 16.1509 8.59533 16.3802C9.06833 16.4805 9.11133 16.7815 8.85333 17.0395L3.85098 22.0419C1.35698 24.5359 1.38564 27.2592 3.92265 29.7962ZM5.82899 27.9472C4.53899 26.6572 4.51032 25.1379 5.81466 23.8336L11.6197 18.0285C12.6517 16.9965 12.6517 15.6492 11.7773 14.7749C11.3043 14.3019 10.645 14.0152 9.699 13.9579C8.39466 13.8862 7.24799 13.5422 6.34499 12.6392C4.69665 10.9909 4.59632 8.45385 6.43099 6.61917C8.28 4.77017 10.817 4.8705 12.4653 6.51884C13.3683 7.42184 13.7123 8.56851 13.784 9.87285C13.8413 10.8189 14.1137 11.4925 14.5867 11.9655C15.461 12.8399 16.8084 12.8399 17.8547 11.7935L23.8317 5.81651C25.136 4.51217 26.6554 4.54084 27.9454 5.83084L31.3711 9.25651C31.9587 9.84418 31.5287 10.0449 31.0557 10.1452C29.7227 10.4175 28.3324 10.8332 27.114 12.0515C24.5627 14.6029 24.3907 18.7595 27.3147 21.6835C30.2531 24.6219 34.3954 24.4356 36.9467 21.8842C38.1651 20.6659 38.5807 19.2755 38.8531 17.9425C38.9534 17.4695 39.1541 17.0395 39.7417 17.6272L43.1674 21.0529C44.4574 22.3429 44.4861 23.8622 43.1818 25.1666L37.2047 31.1436C36.1584 32.1899 36.1584 33.5372 37.0327 34.4116C37.5057 34.8846 38.1937 35.1712 39.1254 35.2142C40.4298 35.2859 41.5908 35.6443 42.4794 36.5329C44.1278 38.1813 44.2281 40.7183 42.3791 42.5673C40.5444 44.4019 38.0074 44.3016 36.3591 42.6533C35.4704 41.7646 35.1121 40.6036 35.0404 39.2993C34.9974 38.3676 34.6964 37.6939 34.2234 37.2209C33.3491 36.3466 32.0017 36.3466 30.9697 37.3786L25.1647 43.1836C23.8604 44.4879 22.341 44.4593 21.051 43.1693L17.6254 39.7436C17.0377 39.1559 17.4677 38.9553 17.9407 38.8549C19.288 38.5683 20.664 38.1669 21.8967 36.9343C24.4767 34.3542 24.663 30.2979 21.6817 27.3166C18.7004 24.3352 14.644 24.5216 12.064 27.1016C10.8313 28.3342 10.43 29.7102 10.1433 31.0576C10.043 31.5306 9.84233 31.9606 9.25467 31.3729L5.82899 27.9472Z" fill="url(#paint0_linear)"/>
<defs>
<linearGradient id="paint0_linear" x1="2" y1="10.9225" x2="47.2122" y2="11.2703" gradientUnits="userSpaceOnUse">
<stop stop-color="#A468FF"/>
<stop offset="0.446494" stop-color="#895AFF"/>
<stop offset="1" stop-color="#4839FF"/>
</linearGradient>
</defs>
</svg>
