<svg width="168" height="80" viewBox="0 0 168 80" fill="none" xmlns="http://www.w3.org/2000/svg">
<path d="M59.9182 26.6387H63.7376L67.1501 31.4005C68.8878 33.8207 72.7072 39.2755 72.7072 39.2755C72.7072 39.2755 76.524 33.8706 78.2197 31.4504L81.6322 26.6519H85.449V51.1457H81.0652V34.1357C81.0652 34.1357 80.3092 35.4955 78.7211 37.8107L72.7125 46.4286L66.6251 37.7346C65.1 35.5217 64.3125 34.1226 64.3125 34.1226V51.1326H59.9182V26.6387Z" fill="black"/>
<path d="M89.2264 41.7955C89.2264 36.4274 93.4264 32.0436 98.8628 32.0436C103.85 32.0436 107.861 36.3906 107.861 41.6432C107.855 42.1875 107.817 42.731 107.746 43.2707H93.5708C94.1746 46.2554 96.5948 47.8067 99.3904 47.8067C101.303 47.8147 103.173 47.2476 104.759 46.1792L106.42 49.2794C104.327 50.7144 101.852 51.4913 99.3143 51.5106C93.9882 51.5106 89.2264 47.9564 89.2264 41.7955ZM103.777 40.1706C103.613 38.9272 103 37.7868 102.053 36.9646C101.106 36.1425 99.8911 35.6955 98.6371 35.7081C96.2168 35.7081 94.1011 37.4826 93.5341 40.1706H103.777Z" fill="black"/>
<path d="M109.68 48.7885L111.255 45.3497C112.466 46.3315 114.392 47.5784 117.191 47.5784C118.892 47.5784 120.894 46.9352 120.894 45.6122C120.894 44.2892 119.004 43.9112 117.154 43.3836C113.6 42.3992 110.576 41.3414 110.576 37.6742C110.576 34.0071 114.319 32.0436 117.605 32.0436C120.404 32.0436 122.257 32.7602 124.296 33.9704L122.748 37.3829C121.205 36.4618 119.441 35.9782 117.645 35.9837C116.246 35.9837 114.846 36.6269 114.846 37.6112C114.846 38.8949 116.398 39.1862 118.059 39.538C121.538 40.294 125.165 41.6931 125.165 45.5492C125.165 49.933 120.669 51.5211 117.191 51.5211C113.345 51.5106 110.699 49.7702 109.68 48.7885Z" fill="black"/>
<path d="M128.363 26.2607H132.563V35.1044C133.922 33.0254 136.077 32.0436 138.574 32.0436C143.488 32.0436 145.302 35.2566 145.302 40.3964V51.1326H141.102V40.9266C141.102 37.8632 140.272 36.0887 137.164 36.0887C134.264 36.0887 132.563 38.3935 132.563 41.3125V51.1405H128.363V26.2607Z" fill="black"/>
<path fill-rule="evenodd" clip-rule="evenodd" d="M32.3443 31.8696C30.9569 33.946 30.2164 36.3871 30.2164 38.8844C30.197 40.5479 30.5104 42.1984 31.1381 43.739C31.7657 45.2797 32.695 46.6793 33.8714 47.8556C35.0477 49.0319 36.4473 49.9613 37.988 50.5889C39.5286 51.2166 41.1791 51.53 42.8426 51.5106C45.3399 51.5106 47.781 50.7701 49.8574 49.3827C51.9338 47.9953 53.5521 46.0234 54.5077 43.7162C55.4634 41.4091 55.7134 38.8704 55.2263 36.4211C54.7391 33.9719 53.5365 31.7221 51.7707 29.9563C50.0049 28.1905 47.7551 26.9879 45.3059 26.5007C42.8566 26.0135 40.3179 26.2636 38.0108 27.2192C35.7036 28.1749 33.7317 29.7932 32.3443 31.8696ZM42.8531 27.6966C49.0796 27.6966 53.8781 32.6474 53.8781 38.8844C53.8781 45.1214 49.0796 50.0748 42.8426 50.0748C36.6056 50.0748 31.8045 45.1188 31.8045 38.8844C31.8045 32.65 36.6266 27.6966 42.8531 27.6966ZM25.4966 26.6388H23.9846V51.1326H25.4966V26.6388Z" fill="#7E41FF"/>
<path fill-rule="evenodd" clip-rule="evenodd" d="M32.3443 31.8696C30.9569 33.946 30.2164 36.3871 30.2164 38.8844C30.197 40.5479 30.5104 42.1984 31.1381 43.739C31.7657 45.2797 32.695 46.6793 33.8714 47.8556C35.0477 49.0319 36.4473 49.9613 37.988 50.5889C39.5286 51.2166 41.1791 51.53 42.8426 51.5106C45.3399 51.5106 47.781 50.7701 49.8574 49.3827C51.9338 47.9953 53.5521 46.0234 54.5077 43.7162C55.4634 41.4091 55.7134 38.8704 55.2263 36.4211C54.7391 33.9719 53.5365 31.7221 51.7707 29.9563C50.0049 28.1905 47.7551 26.9879 45.3059 26.5007C42.8566 26.0135 40.3179 26.2636 38.0108 27.2192C35.7036 28.1749 33.7317 29.7932 32.3443 31.8696ZM42.8531 27.6966C49.0796 27.6966 53.8781 32.6474 53.8781 38.8844C53.8781 45.1214 49.0796 50.0748 42.8426 50.0748C36.6056 50.0748 31.8045 45.1188 31.8045 38.8844C31.8045 32.65 36.6266 27.6966 42.8531 27.6966ZM25.4966 26.6388H23.9846V51.1326H25.4966V26.6388Z" fill="white" fill-opacity="0.2" style="mix-blend-mode:overlay"/>
</svg>
