<svg width="495" height="340" viewBox="0 0 495 340" fill="none" xmlns="http://www.w3.org/2000/svg">
<g clip-path="url(#clip0)">
<path d="M482.473 220.005C482.006 220.005 482.006 220.005 482.473 220.005H482.006C481.54 220.005 481.073 220.005 481.073 219.77C480.141 219.77 479.208 219.536 478.275 219.536C475.01 219.301 472.211 219.067 469.412 219.067C468.013 219.067 466.613 219.067 464.748 218.832H464.281C454.486 218.363 446.556 217.894 439.093 216.721C435.828 216.017 434.895 215.079 433.962 214.141C433.962 213.906 433.495 213.906 433.495 213.672L427.432 212.734C430.23 201.944 429.297 190.685 424.166 179.661C419.035 168.637 410.173 158.317 398.045 148.934L402.71 146.823V146.354C402.71 145.181 403.176 144.009 405.042 142.836C410.639 140.256 417.636 138.145 426.032 135.565C427.432 135.096 428.831 134.861 430.23 134.392C433.029 133.688 435.361 132.985 438.16 132.046C438.626 131.812 439.559 131.577 440.492 131.108C440.959 130.874 441.425 130.874 441.425 130.639C447.955 127.824 449.355 123.133 444.69 120.084C442.358 118.442 438.16 117.504 433.962 117.504C430.23 117.504 426.965 118.208 423.7 119.38C423.233 119.615 423.234 119.615 422.767 119.849C421.834 120.084 421.368 120.553 420.435 120.788C418.103 121.96 416.237 122.899 414.371 124.071C413.438 124.541 412.505 125.244 411.106 125.713C404.575 129.232 398.512 132.046 392.448 134.157C391.048 134.626 389.649 134.861 388.25 134.861C387.317 134.861 386.384 134.861 385.451 134.626H384.518L378.921 136.503C372.857 133.219 366.326 130.404 359.796 127.59C331.809 116.566 297.758 109.764 262.308 108.122L261.841 105.072C261.375 104.838 261.375 104.838 260.908 104.603C259.509 103.9 257.643 103.196 257.177 101.554C256.71 97.8012 257.643 93.5792 258.576 88.888V88.6535C258.576 87.9498 259.043 87.0116 259.509 86.3079C259.975 84.9006 260.442 83.4932 260.908 81.8513V80.444V79.7403C260.908 75.5183 254.378 72 246.448 72C242.717 72 238.985 72.9382 236.186 74.3456C233.388 75.7529 231.988 77.6293 231.988 79.7403V80.2095V81.6168C231.988 83.2587 232.455 84.666 233.388 86.0734C233.854 86.777 233.854 87.4807 234.321 88.4189V88.6535C235.254 93.3446 236.653 97.5666 235.72 101.32C235.254 102.961 233.388 103.665 231.988 104.369C231.522 104.603 231.522 104.603 231.055 104.838L230.589 107.887C222.193 108.356 213.797 108.825 205.401 109.764C169.484 113.751 137.765 122.899 113.043 136.034L108.379 134.392H107.446C106.513 134.392 105.58 134.626 104.647 134.626C103.248 134.626 101.848 134.392 100.449 133.923C94.3852 131.812 88.3213 128.763 81.791 125.244C80.8581 124.775 79.9252 124.071 78.5259 123.602C76.66 122.43 74.7942 121.491 72.462 120.319C71.9955 120.084 71.0626 119.849 70.1297 119.38C69.6633 119.146 69.1968 119.146 69.1968 118.911C66.3981 117.738 62.6665 117.035 58.9349 117.035C54.7368 117.035 50.5388 117.973 48.2065 119.615C43.542 122.664 44.9413 127.355 51.4717 130.17C51.9381 130.17 51.9381 130.404 52.4046 130.404C53.3375 130.639 53.8039 131.108 54.7368 131.343C57.5355 132.281 59.8678 132.985 62.6665 133.688C64.0658 133.923 65.4652 134.392 66.8646 134.861C75.2607 137.441 82.2575 139.552 87.8549 142.132C90.1871 143.305 90.1871 144.478 90.1871 145.651V146.12L94.8516 148.231C93.9187 148.934 92.9858 149.403 92.5194 150.107C69.1968 168.637 60.3342 190.451 66.3981 212.03L60.3342 212.968C60.3342 213.203 59.8678 213.203 59.8678 213.437C58.9349 214.376 57.5355 215.314 54.7368 216.017C47.74 217.19 39.3439 217.659 29.5484 218.128H29.082C27.6826 218.128 25.8168 218.128 24.4175 218.363C21.6188 218.363 18.8201 218.598 15.5549 218.832C14.622 218.832 13.6891 219.067 12.7562 219.067C12.2897 219.067 11.8233 219.067 11.3568 219.301C2.96069 220.239 -2.17027 224.227 -0.770917 227.98C0.628438 231.264 6.69231 233.375 14.1555 233.375C15.5549 233.375 16.4878 233.375 17.8871 233.14C18.3536 233.14 18.82 233.14 18.82 232.905C19.753 232.905 20.6859 232.671 21.6188 232.671C24.8839 232.202 27.2162 231.733 30.0149 231.029C31.4142 230.794 32.8136 230.325 34.2129 230.091H34.6794C43.542 228.449 51.4717 227.042 58.9349 226.572H59.8678C62.6665 226.572 64.5323 227.276 65.9317 227.745C66.3981 227.745 66.3981 227.98 66.8646 227.98L73.3949 227.511C84.5897 244.868 106.046 260.348 134.5 271.607C141.03 274.187 147.561 276.298 154.557 278.409L151.759 281.459C151.759 281.693 152.225 281.693 152.225 281.928C153.158 282.866 154.091 284.039 153.158 285.681C150.359 289.199 146.161 292.717 141.03 296.705V296.939C140.097 297.643 139.165 298.112 138.232 298.816C136.366 299.988 134.966 301.161 133.101 302.569C132.634 302.803 132.168 303.272 131.701 303.741C131.701 303.976 131.235 304.21 131.235 304.21C127.503 308.198 130.302 312.654 137.299 314.296C139.165 314.765 141.03 315 142.896 315C148.494 315 154.091 313.124 156.89 310.543C156.89 310.309 157.356 310.074 157.356 310.074C157.823 309.605 158.289 309.136 158.755 308.902C160.155 307.26 160.621 306.087 161.554 304.68C162.021 303.976 162.487 303.272 162.954 302.569C166.219 297.877 168.551 294.125 172.749 290.841C174.615 289.433 176.947 289.199 178.813 288.73C179.279 288.73 179.279 288.73 179.746 288.495L183.011 285.446C203.535 289.433 225.925 291.544 248.314 291.544C261.841 291.544 275.835 290.841 288.895 289.199C297.292 288.261 305.221 287.088 313.151 285.681L315.95 288.261C316.416 288.261 316.416 288.261 316.883 288.495C319.215 288.73 321.081 289.199 322.946 290.606C326.678 293.89 329.477 297.877 332.742 302.334V302.569C333.208 303.272 333.675 303.976 334.141 304.68C335.074 306.087 335.541 307.494 336.94 308.902C337.406 309.371 337.873 309.605 338.339 310.074C338.339 310.309 338.806 310.543 338.806 310.543C341.604 313.358 347.202 315 352.799 315C354.665 315 356.531 314.765 358.397 314.296C361.662 313.358 364.461 311.951 365.394 310.074C366.326 308.198 366.326 306.087 364.461 304.21C364.461 303.976 363.994 303.976 363.994 303.741C363.528 303.272 363.061 302.803 362.595 302.569C361.195 301.161 359.33 299.988 357.464 298.816C356.531 298.112 355.598 297.643 354.665 296.939V296.705C349.534 292.717 344.87 289.199 342.537 285.681C341.605 284.039 342.537 283.1 343.004 281.928C343.004 281.693 343.47 281.693 343.47 281.459L341.138 278.644C365.86 271.373 386.85 261.052 402.71 248.386C411.106 241.819 417.636 234.547 422.301 227.276L427.898 227.745C428.364 227.745 428.364 227.511 428.831 227.511C430.697 227.042 432.096 226.338 434.895 226.338H435.828C443.291 226.807 451.221 228.214 460.083 229.856H460.55C461.949 230.091 463.348 230.56 464.748 230.794C467.546 231.498 469.879 231.967 473.144 232.436C474.077 232.436 475.01 232.671 475.943 232.671C476.409 232.671 476.875 232.671 477.342 232.905C478.741 233.14 479.674 233.14 481.073 233.14C488.07 233.14 494.134 230.794 496 227.745C496 224.931 490.869 221.178 482.473 220.005ZM266.506 208.512L245.982 213.437L225.458 208.512L220.327 197.487L234.321 188.574H257.177L271.17 197.487L266.506 208.512ZM388.25 184.118C391.981 192.093 392.914 200.068 391.515 207.808L320.148 197.487C313.617 196.549 309.886 193.265 311.285 189.982C311.752 189.043 312.685 188.105 314.084 187.402L370.525 161.835C378.454 168.403 384.518 175.908 388.25 184.118ZM348.135 147.762L287.03 169.575C281.899 171.217 274.902 170.748 270.704 168.168C269.305 167.464 268.838 166.526 268.372 165.588L264.174 127.355C296.359 129.232 325.745 136.503 348.135 147.762ZM212.864 128.528C217.995 128.059 222.659 127.59 227.79 127.121L223.592 164.65C223.126 167.933 217.995 170.748 210.998 170.748C209.132 170.748 206.8 170.514 205.401 170.044L143.363 147.762C162.487 138.145 186.276 131.577 212.864 128.528ZM120.973 161.835L176.481 186.698C181.612 188.809 182.078 192.796 177.88 195.376C176.481 196.315 174.615 197.018 172.283 197.253L99.9826 207.808C97.1839 191.858 104.181 175.674 120.973 161.835ZM108.379 225.4L182.545 219.067C188.608 218.832 194.206 220.943 195.605 223.992C196.072 225.4 196.072 226.572 195.139 227.745L166.685 262.225C140.564 253.781 119.574 240.88 108.379 225.4ZM278.634 272.076C267.905 273.249 257.177 273.953 245.982 273.953C229.656 273.953 213.797 272.545 198.87 270.2L235.72 236.658C239.452 234.547 245.515 233.609 250.646 235.016C252.979 235.72 254.845 236.658 256.244 237.597L292.161 270.2C287.963 270.903 283.298 271.373 278.634 272.076ZM369.592 239.473C357.93 248.855 342.537 256.361 324.812 262.225L295.426 226.807C294.026 223.992 296.359 220.943 301.956 219.536C303.822 219.067 306.154 218.832 308.486 218.832L383.119 225.165C380.32 230.325 375.655 235.016 369.592 239.473Z" fill="url(#paint0_linear)"/>
<path d="M253.796 26.1234C253.796 29.6173 250.973 32.4497 247.491 32.4497C244.01 32.4497 241.187 29.6173 241.187 26.1234C241.187 22.6295 244.01 19.7971 247.491 19.7971C250.973 19.7971 253.796 22.6295 253.796 26.1234Z" fill="url(#paint1_linear)"/>
<path d="M253.796 66.8928C253.796 70.3867 250.973 73.219 247.491 73.219C244.01 73.219 241.187 70.3867 241.187 66.8928C241.187 63.3988 244.01 60.5665 247.491 60.5665C250.973 60.5665 253.796 63.3988 253.796 66.8928Z" fill="url(#paint2_linear)"/>
<path d="M246.09 77.4366C246.09 76.6601 246.718 76.0307 247.491 76.0307C248.265 76.0307 248.892 76.6601 248.892 77.4366V97.1183C248.892 97.8947 248.265 98.5242 247.491 98.5242C246.718 98.5242 246.09 97.8947 246.09 97.1183V77.4366Z" fill="url(#paint3_linear)"/>
<path d="M253.796 107.662C253.796 111.156 250.973 113.988 247.491 113.988C244.01 113.988 241.187 111.156 241.187 107.662C241.187 104.168 244.01 101.336 247.491 101.336C250.973 101.336 253.796 104.168 253.796 107.662Z" fill="url(#paint4_linear)"/>
<path d="M218.771 46.5081C218.771 50.002 215.948 52.8344 212.466 52.8344C208.984 52.8344 206.162 50.002 206.162 46.5081C206.162 43.0142 208.984 40.1818 212.466 40.1818C215.948 40.1818 218.771 43.0142 218.771 46.5081Z" fill="url(#paint5_linear)"/>
<path d="M211.065 57.0519C211.065 56.2755 211.693 55.646 212.466 55.646C213.24 55.646 213.867 56.2755 213.867 57.0519V76.7336C213.867 77.5101 213.24 78.1395 212.466 78.1395C211.693 78.1395 211.065 77.5101 211.065 76.7336V57.0519Z" fill="url(#paint6_linear)"/>
<path d="M218.771 87.2774C218.771 90.7713 215.948 93.6037 212.466 93.6037C208.984 93.6037 206.162 90.7713 206.162 87.2774C206.162 83.7835 208.984 80.9512 212.466 80.9512C215.948 80.9512 218.771 83.7835 218.771 87.2774Z" fill="url(#paint7_linear)"/>
<path d="M288.821 46.5081C288.821 50.002 285.998 52.8344 282.516 52.8344C279.035 52.8344 276.212 50.002 276.212 46.5081C276.212 43.0142 279.035 40.1818 282.516 40.1818C285.998 40.1818 288.821 43.0142 288.821 46.5081Z" fill="url(#paint8_linear)"/>
<path d="M281.115 57.0519C281.115 56.2755 281.743 55.646 282.516 55.646C283.29 55.646 283.917 56.2755 283.917 57.0519V76.7336C283.917 77.5101 283.29 78.1395 282.516 78.1395C281.743 78.1395 281.115 77.5101 281.115 76.7336V57.0519Z" fill="url(#paint9_linear)"/>
<path d="M288.821 87.2774C288.821 90.7713 285.998 93.6037 282.516 93.6037C279.035 93.6037 276.212 90.7713 276.212 87.2774C276.212 83.7835 279.035 80.9512 282.516 80.9512C285.998 80.9512 288.821 83.7835 288.821 87.2774Z" fill="url(#paint10_linear)"/>
<path d="M285.83 51.9868C282.814 53.7337 278.958 52.697 277.217 49.6712C275.477 46.6454 276.51 42.7763 279.525 41.0293C282.54 39.2824 286.396 40.3191 288.137 43.3449C289.878 46.3707 288.845 50.2398 285.83 51.9868Z" fill="url(#paint11_linear)"/>
<path d="M253.957 66.8927C253.957 70.3866 251.134 73.219 247.652 73.219C244.17 73.219 241.348 70.3866 241.348 66.8927C241.348 63.3988 244.17 60.5664 247.652 60.5664C251.134 60.5664 253.957 63.3988 253.957 66.8927Z" fill="url(#paint12_linear)"/>
<path d="M250.644 72.3715C247.628 74.1184 243.773 73.0817 242.032 70.0559C240.291 67.0301 241.324 63.161 244.339 61.414C247.355 59.6671 251.21 60.7038 252.951 63.7296C254.692 66.7554 253.659 70.6245 250.644 72.3715Z" fill="url(#paint13_linear)"/>
<path d="M272.877 50.5625C273.547 50.1743 274.404 50.4046 274.791 51.077C275.178 51.7494 274.948 52.6092 274.278 52.9975L257.292 62.8383C256.622 63.2265 255.765 62.9962 255.378 62.3238C254.991 61.6514 255.221 60.7916 255.891 60.4034L272.877 50.5625Z" fill="url(#paint14_linear)"/>
<path d="M215.458 92.7561C212.443 94.5031 208.587 93.4664 206.846 90.4406C205.105 87.4148 206.138 83.5457 209.153 81.7987C212.169 80.0518 216.025 81.0885 217.766 84.1143C219.506 87.1401 218.473 91.0092 215.458 92.7561Z" fill="url(#paint15_linear)"/>
<path d="M285.829 92.7562C282.814 94.5031 278.958 93.4664 277.217 90.4406C275.476 87.4148 276.509 83.5457 279.525 81.7987C282.54 80.0518 286.396 81.0885 288.137 84.1143C289.878 87.1401 288.845 91.0092 285.829 92.7562Z" fill="url(#paint16_linear)"/>
<path d="M250.643 113.141C247.628 114.888 243.772 113.851 242.031 110.825C240.29 107.799 241.324 103.93 244.339 102.183C247.354 100.436 251.21 101.473 252.951 104.499C254.692 107.525 253.659 111.394 250.643 113.141Z" fill="url(#paint17_linear)"/>
<path d="M272.877 91.3319C273.547 90.9437 274.404 91.174 274.791 91.8464C275.177 92.5188 274.948 93.3786 274.278 93.7669L257.292 103.608C256.621 103.996 255.765 103.766 255.378 103.093C254.991 102.421 255.22 101.561 255.891 101.173L272.877 91.3319Z" fill="url(#paint18_linear)"/>
<path d="M215.458 41.0294C218.473 42.7763 219.506 46.6454 217.765 49.6712C216.024 52.697 212.169 53.7337 209.153 51.9868C206.138 50.2398 205.105 46.3707 206.846 43.3449C208.587 40.3191 212.442 39.2824 215.458 41.0294Z" fill="url(#paint19_linear)"/>
<path d="M250.644 61.414C253.659 63.161 254.692 67.0301 252.951 70.0559C251.21 73.0817 247.355 74.1184 244.339 72.3715C241.324 70.6245 240.291 66.7554 242.031 63.7296C243.772 60.7038 247.628 59.6671 250.644 61.414Z" fill="url(#paint20_linear)"/>
<path d="M253.796 66.8928C253.796 70.3867 250.973 73.219 247.491 73.219C244.01 73.219 241.187 70.3867 241.187 66.8928C241.187 63.3988 244.01 60.5665 247.491 60.5665C250.973 60.5665 253.796 63.3988 253.796 66.8928Z" fill="url(#paint21_linear)"/>
<path d="M285.829 81.7987C288.845 83.5456 289.878 87.4147 288.137 90.4406C286.396 93.4664 282.54 94.5031 279.525 92.7561C276.509 91.0092 275.476 87.1401 277.217 84.1143C278.958 81.0885 282.814 80.0517 285.829 81.7987Z" fill="url(#paint22_linear)"/>
<path d="M237.565 30.5466C238.235 30.1584 239.092 30.3888 239.479 31.0612C239.866 31.7336 239.636 32.5934 238.966 32.9816L221.98 42.8225C221.31 43.2107 220.453 42.9803 220.066 42.3079C219.679 41.6355 219.909 40.7757 220.579 40.3875L237.565 30.5466Z" fill="url(#paint23_linear)"/>
<path d="M245.5 130L245.5 196L248.5 196L248.5 130L245.5 130Z" fill="url(#paint24_linear)"/>
<path d="M247 123L255.66 138H238.34L247 123Z" fill="url(#paint25_linear)"/>
<path d="M247 201L255.66 186H238.34L247 201Z" fill="url(#paint26_linear)"/>
</g>
<defs>
<linearGradient id="paint0_linear" x1="246.864" y1="56.0969" x2="246.864" y2="315" gradientUnits="userSpaceOnUse">
<stop stop-color="#A468FF" stop-opacity="0"/>
<stop offset="1" stop-color="#477FF3" stop-opacity="0.7"/>
</linearGradient>
<linearGradient id="paint1_linear" x1="206" y1="38.4734" x2="289.375" y2="39.0384" gradientUnits="userSpaceOnUse">
<stop stop-color="#A468FF"/>
<stop offset="0.446494" stop-color="#895AFF"/>
<stop offset="1" stop-color="#4839FF"/>
</linearGradient>
<linearGradient id="paint2_linear" x1="206" y1="38.4734" x2="289.375" y2="39.0384" gradientUnits="userSpaceOnUse">
<stop stop-color="#A468FF"/>
<stop offset="0.446494" stop-color="#895AFF"/>
<stop offset="1" stop-color="#4839FF"/>
</linearGradient>
<linearGradient id="paint3_linear" x1="206" y1="38.4734" x2="289.375" y2="39.0384" gradientUnits="userSpaceOnUse">
<stop stop-color="#A468FF"/>
<stop offset="0.446494" stop-color="#895AFF"/>
<stop offset="1" stop-color="#4839FF"/>
</linearGradient>
<linearGradient id="paint4_linear" x1="206" y1="38.4734" x2="289.375" y2="39.0384" gradientUnits="userSpaceOnUse">
<stop stop-color="#A468FF"/>
<stop offset="0.446494" stop-color="#895AFF"/>
<stop offset="1" stop-color="#4839FF"/>
</linearGradient>
<linearGradient id="paint5_linear" x1="206" y1="38.4734" x2="289.375" y2="39.0384" gradientUnits="userSpaceOnUse">
<stop stop-color="#A468FF"/>
<stop offset="0.446494" stop-color="#895AFF"/>
<stop offset="1" stop-color="#4839FF"/>
</linearGradient>
<linearGradient id="paint6_linear" x1="206" y1="38.4734" x2="289.375" y2="39.0384" gradientUnits="userSpaceOnUse">
<stop stop-color="#A468FF"/>
<stop offset="0.446494" stop-color="#895AFF"/>
<stop offset="1" stop-color="#4839FF"/>
</linearGradient>
<linearGradient id="paint7_linear" x1="206" y1="38.4734" x2="289.375" y2="39.0384" gradientUnits="userSpaceOnUse">
<stop stop-color="#A468FF"/>
<stop offset="0.446494" stop-color="#895AFF"/>
<stop offset="1" stop-color="#4839FF"/>
</linearGradient>
<linearGradient id="paint8_linear" x1="206" y1="38.4734" x2="289.375" y2="39.0384" gradientUnits="userSpaceOnUse">
<stop stop-color="#A468FF"/>
<stop offset="0.446494" stop-color="#895AFF"/>
<stop offset="1" stop-color="#4839FF"/>
</linearGradient>
<linearGradient id="paint9_linear" x1="206" y1="38.4734" x2="289.375" y2="39.0384" gradientUnits="userSpaceOnUse">
<stop stop-color="#A468FF"/>
<stop offset="0.446494" stop-color="#895AFF"/>
<stop offset="1" stop-color="#4839FF"/>
</linearGradient>
<linearGradient id="paint10_linear" x1="206" y1="38.4734" x2="289.375" y2="39.0384" gradientUnits="userSpaceOnUse">
<stop stop-color="#A468FF"/>
<stop offset="0.446494" stop-color="#895AFF"/>
<stop offset="1" stop-color="#4839FF"/>
</linearGradient>
<linearGradient id="paint11_linear" x1="206" y1="38.4734" x2="289.375" y2="39.0384" gradientUnits="userSpaceOnUse">
<stop stop-color="#A468FF"/>
<stop offset="0.446494" stop-color="#895AFF"/>
<stop offset="1" stop-color="#4839FF"/>
</linearGradient>
<linearGradient id="paint12_linear" x1="206" y1="38.4734" x2="289.375" y2="39.0384" gradientUnits="userSpaceOnUse">
<stop stop-color="#A468FF"/>
<stop offset="0.446494" stop-color="#895AFF"/>
<stop offset="1" stop-color="#4839FF"/>
</linearGradient>
<linearGradient id="paint13_linear" x1="206" y1="38.4734" x2="289.375" y2="39.0384" gradientUnits="userSpaceOnUse">
<stop stop-color="#A468FF"/>
<stop offset="0.446494" stop-color="#895AFF"/>
<stop offset="1" stop-color="#4839FF"/>
</linearGradient>
<linearGradient id="paint14_linear" x1="206" y1="38.4734" x2="289.375" y2="39.0384" gradientUnits="userSpaceOnUse">
<stop stop-color="#A468FF"/>
<stop offset="0.446494" stop-color="#895AFF"/>
<stop offset="1" stop-color="#4839FF"/>
</linearGradient>
<linearGradient id="paint15_linear" x1="206" y1="38.4734" x2="289.375" y2="39.0384" gradientUnits="userSpaceOnUse">
<stop stop-color="#A468FF"/>
<stop offset="0.446494" stop-color="#895AFF"/>
<stop offset="1" stop-color="#4839FF"/>
</linearGradient>
<linearGradient id="paint16_linear" x1="206" y1="38.4734" x2="289.375" y2="39.0384" gradientUnits="userSpaceOnUse">
<stop stop-color="#A468FF"/>
<stop offset="0.446494" stop-color="#895AFF"/>
<stop offset="1" stop-color="#4839FF"/>
</linearGradient>
<linearGradient id="paint17_linear" x1="206" y1="38.4734" x2="289.375" y2="39.0384" gradientUnits="userSpaceOnUse">
<stop stop-color="#A468FF"/>
<stop offset="0.446494" stop-color="#895AFF"/>
<stop offset="1" stop-color="#4839FF"/>
</linearGradient>
<linearGradient id="paint18_linear" x1="206" y1="38.4734" x2="289.375" y2="39.0384" gradientUnits="userSpaceOnUse">
<stop stop-color="#A468FF"/>
<stop offset="0.446494" stop-color="#895AFF"/>
<stop offset="1" stop-color="#4839FF"/>
</linearGradient>
<linearGradient id="paint19_linear" x1="206" y1="38.4734" x2="289.375" y2="39.0384" gradientUnits="userSpaceOnUse">
<stop stop-color="#A468FF"/>
<stop offset="0.446494" stop-color="#895AFF"/>
<stop offset="1" stop-color="#4839FF"/>
</linearGradient>
<linearGradient id="paint20_linear" x1="206" y1="38.4734" x2="289.375" y2="39.0384" gradientUnits="userSpaceOnUse">
<stop stop-color="#A468FF"/>
<stop offset="0.446494" stop-color="#895AFF"/>
<stop offset="1" stop-color="#4839FF"/>
</linearGradient>
<linearGradient id="paint21_linear" x1="206" y1="38.4734" x2="289.375" y2="39.0384" gradientUnits="userSpaceOnUse">
<stop stop-color="#A468FF"/>
<stop offset="0.446494" stop-color="#895AFF"/>
<stop offset="1" stop-color="#4839FF"/>
</linearGradient>
<linearGradient id="paint22_linear" x1="206" y1="38.4734" x2="289.375" y2="39.0384" gradientUnits="userSpaceOnUse">
<stop stop-color="#A468FF"/>
<stop offset="0.446494" stop-color="#895AFF"/>
<stop offset="1" stop-color="#4839FF"/>
</linearGradient>
<linearGradient id="paint23_linear" x1="206" y1="38.4734" x2="289.375" y2="39.0384" gradientUnits="userSpaceOnUse">
<stop stop-color="#A468FF"/>
<stop offset="0.446494" stop-color="#895AFF"/>
<stop offset="1" stop-color="#4839FF"/>
</linearGradient>
<linearGradient id="paint24_linear" x1="246.802" y1="130" x2="220.034" y2="182.725" gradientUnits="userSpaceOnUse">
<stop stop-color="#A468FF"/>
<stop offset="0.446494" stop-color="#895AFF"/>
<stop offset="1" stop-color="#4839FF"/>
</linearGradient>
<linearGradient id="paint25_linear" x1="237" y1="126.966" x2="257.094" y2="127.12" gradientUnits="userSpaceOnUse">
<stop stop-color="#A468FF"/>
<stop offset="0.446494" stop-color="#895AFF"/>
<stop offset="1" stop-color="#4839FF"/>
</linearGradient>
<linearGradient id="paint26_linear" x1="237" y1="197.034" x2="257.094" y2="196.88" gradientUnits="userSpaceOnUse">
<stop stop-color="#A468FF"/>
<stop offset="0.446494" stop-color="#895AFF"/>
<stop offset="1" stop-color="#4839FF"/>
</linearGradient>
<clipPath id="clip0">
<rect width="495" height="340" fill="white"/>
</clipPath>
</defs>
</svg>
