<svg width="48" height="48" viewBox="0 0 48 48" fill="none" xmlns="http://www.w3.org/2000/svg">
<path d="M1.11608 41.1153C0.530146 42.4747 1.04577 43.3418 2.4989 43.5059L11.5692 44.42C13.4208 44.6309 14.5458 43.459 13.5614 41.795L11.8505 38.8184L23.9911 32.7247L36.1317 38.8184L34.3973 41.795C33.4364 43.459 34.5614 44.6309 36.413 44.42L45.4833 43.5059C46.9364 43.3418 47.452 42.4747 46.8426 41.1153L43.0926 32.795C42.3661 31.1075 40.7958 30.7559 39.8583 32.3965L37.6551 36.1934L25.5145 30.1231V15.3575H29.3817C31.327 15.3575 31.7723 13.8106 30.6942 12.3106L25.327 4.92779C24.4598 3.73247 23.4755 3.70904 22.5848 4.92779L17.2645 12.3106C16.163 13.7872 16.6551 15.3575 18.5536 15.3575H22.4676V30.1231L10.327 36.1934L8.1239 32.3965C7.1864 30.7559 5.61608 31.1075 4.86608 32.795L1.11608 41.1153Z" fill="url(#paint0_linear)"/>
<defs>
<linearGradient id="paint0_linear" x1="0.87915" y1="12.0373" x2="47.3111" y2="12.4457" gradientUnits="userSpaceOnUse">
<stop stop-color="#A468FF"/>
<stop offset="0.446494" stop-color="#895AFF"/>
<stop offset="1" stop-color="#4839FF"/>
</linearGradient>
</defs>
</svg>
