<svg width="20" height="20" viewBox="0 0 20 20" fill="none" xmlns="http://www.w3.org/2000/svg">
<path d="M4.21634 12.6333C4.21634 13.7948 3.2776 14.7335 2.11611 14.7335C0.954612 14.7335 0.0158691 13.7948 0.0158691 12.6333C0.0158691 11.4718 0.954612 10.533 2.11611 10.533H4.21634V12.6333Z" fill="#E01E5A"/>
<path d="M5.26636 12.6333C5.26636 11.4718 6.2051 10.533 7.36659 10.533C8.52809 10.533 9.46683 11.4718 9.46683 12.6333V17.8839C9.46683 19.0453 8.52809 19.9841 7.36659 19.9841C6.2051 19.9841 5.26636 19.0453 5.26636 17.8839V12.6333Z" fill="#E01E5A"/>
<path d="M7.36684 4.20047C6.20534 4.20047 5.2666 3.26173 5.2666 2.10024C5.2666 0.938743 6.20534 0 7.36684 0C8.52833 0 9.46707 0.938743 9.46707 2.10024V4.20047H7.36684Z" fill="#36C5F0"/>
<path d="M7.36674 5.26651C8.52824 5.26651 9.46698 6.20525 9.46698 7.36675C9.46698 8.52824 8.52824 9.46698 7.36674 9.46698H2.10024C0.938743 9.46698 0 8.52824 0 7.36675C0 6.20525 0.938743 5.26651 2.10024 5.26651H7.36674Z" fill="#36C5F0"/>
<path d="M15.7834 7.36675C15.7834 6.20525 16.7222 5.26651 17.8837 5.26651C19.0452 5.26651 19.9839 6.20525 19.9839 7.36675C19.9839 8.52824 19.0452 9.46698 17.8837 9.46698H15.7834V7.36675Z" fill="#2EB67D"/>
<path d="M14.7334 7.36674C14.7334 8.52824 13.7947 9.46698 12.6332 9.46698C11.4717 9.46698 10.533 8.52824 10.533 7.36674V2.10024C10.533 0.938743 11.4717 0 12.6332 0C13.7947 0 14.7334 0.938743 14.7334 2.10024V7.36674Z" fill="#2EB67D"/>
<path d="M12.6332 15.7836C13.7947 15.7836 14.7334 16.7224 14.7334 17.8839C14.7334 19.0453 13.7947 19.9841 12.6332 19.9841C11.4717 19.9841 10.533 19.0453 10.533 17.8839V15.7836H12.6332Z" fill="#ECB22E"/>
<path d="M12.6332 14.7335C11.4717 14.7335 10.533 13.7948 10.533 12.6333C10.533 11.4718 11.4717 10.533 12.6332 10.533H17.8997C19.0612 10.533 19.9999 11.4718 19.9999 12.6333C19.9999 13.7948 19.0612 14.7335 17.8997 14.7335H12.6332Z" fill="#ECB22E"/>
</svg>
