<svg width="32" height="28" viewBox="0 0 32 28" fill="none" xmlns="http://www.w3.org/2000/svg">
<g clip-path="url(#clip0)">
<path d="M28.6387 7.41851C28.6581 7.69851 28.6581 7.97851 28.6581 8.26109C28.6581 16.8714 22.1032 26.8017 10.1174 26.8017V26.7966C6.57677 26.8017 3.10967 25.7875 0.129028 23.8753C0.643867 23.9372 1.16129 23.9682 1.68 23.9695C4.61419 23.9721 7.46451 22.9875 9.7729 21.1746C6.98451 21.1217 4.53935 19.3037 3.68516 16.6495C4.66193 16.8379 5.66838 16.7992 6.62709 16.5372C3.58709 15.923 1.4 13.2521 1.4 10.1501C1.4 10.1217 1.4 10.0946 1.4 10.0675C2.3058 10.5721 3.32 10.8521 4.35742 10.883C1.49419 8.96947 0.611609 5.16044 2.34064 2.18238C5.64903 6.25335 10.5303 8.72818 15.7703 8.99012C15.2452 6.72689 15.9626 4.35528 17.6555 2.76431C20.28 0.297217 24.4077 0.423668 26.8748 3.04689C28.3342 2.75915 29.7329 2.22367 31.0129 1.46496C30.5264 2.97335 29.5084 4.25464 28.1484 5.06883C29.44 4.91657 30.7019 4.57077 31.8903 4.04302C31.0155 5.35399 29.9135 6.49593 28.6387 7.41851Z" fill="#1D9BF0"/>
</g>
<defs>
<clipPath id="clip0">
<rect width="32" height="26.3226" fill="white" transform="translate(0 0.800781)"/>
</clipPath>
</defs>
</svg>
